<svg id="Layer_1" data-name="Layer 1" xmlns="http://www.w3.org/2000/svg" viewBox="0 0 48 48"><defs><style>.cls-1{fill:#73a9db;}.cls-2{fill:#5d99d1;}.cls-3{fill:#eceaf0;}.cls-4{fill:#87b9e3;}.cls-5{fill:#fd7;}.cls-6{fill:#ffcb66;}.cls-7{fill:#90908f;}.cls-8{fill:#818282;}</style></defs><title>film, photography, memory, image, picture</title><polygon class="cls-1" points="47.5 7.35 47.5 24.98 40.65 30.85 40.65 40.65 26.94 40.65 26.94 7.35 47.5 7.35"/><rect class="cls-2" x="26.94" y="7.35" width="20.56" height="5.88"/><rect class="cls-2" x="26.94" y="34.77" width="13.71" height="5.88"/><rect class="cls-3" x="28.9" y="9.31" width="1.96" height="1.96"/><rect class="cls-3" x="32.81" y="9.31" width="1.96" height="1.96"/><rect class="cls-3" x="36.73" y="9.31" width="1.96" height="1.96"/><rect class="cls-3" x="28.9" y="36.73" width="1.96" height="1.96"/><rect class="cls-3" x="32.81" y="36.73" width="1.96" height="1.96"/><rect class="cls-3" x="36.73" y="36.73" width="1.96" height="1.96"/><rect class="cls-3" x="40.65" y="9.31" width="1.96" height="1.96"/><rect class="cls-3" x="44.56" y="9.31" width="1.96" height="1.96"/><rect class="cls-4" x="26.94" y="15.19" width="8.81" height="17.63"/><polygon class="cls-4" points="47.5 15.19 47.5 24.98 40.65 30.85 40.65 32.81 37.71 32.81 37.71 15.19 47.5 15.19"/><rect class="cls-5" x="1.48" y="3.44" width="25.46" height="41.13"/><rect class="cls-6" x="4.42" y="3.44" width="19.58" height="41.13"/><rect class="cls-7" x="0.5" y="40.65" width="27.42" height="3.92"/><rect class="cls-7" x="0.5" y="3.44" width="27.42" height="3.92"/><rect class="cls-8" x="8.33" y="0.5" width="11.75" height="2.94"/><rect class="cls-8" x="8.33" y="44.56" width="11.75" height="2.94"/></svg>